<svg id="Layer_1" data-name="Layer 1" xmlns="http://www.w3.org/2000/svg" viewBox="0 0 100 100"><title>icon</title><path d="M16.25,63.12A3.74,3.74,0,0,0,20,59.38V53.75H46.25v5.63a3.75,3.75,0,0,0,7.5,0V53.75H80v5.63a3.75,3.75,0,0,0,7.5,0V50a3.75,3.75,0,0,0-3.75-3.75h-30V40.62a3.75,3.75,0,0,0-7.5,0v5.63h-30A3.75,3.75,0,0,0,12.5,50v9.38A3.74,3.74,0,0,0,16.25,63.12Z"/><circle cx="16.25" cy="83.75" r="11.25"/><circle cx="83.75" cy="83.75" r="11.25"/><circle cx="50" cy="83.75" r="11.25"/><circle cx="50" cy="16.25" r="11.25"/></svg>