<svg id="Layer_1" data-name="Layer 1" xmlns="http://www.w3.org/2000/svg" viewBox="0 0 100 100"><defs><style>.cls-1{fill-rule:evenodd;}</style></defs><title>icon</title><path class="cls-1" d="M30.25,71.82a3.75,3.75,0,0,0-5.3,0l-5.79,5.79-5.79-5.79a3.75,3.75,0,1,0-5.3,5.3l5.79,5.79L8.07,88.7a3.75,3.75,0,1,0,5.3,5.3l5.79-5.79L25,94a3.75,3.75,0,0,0,5.3-5.3l-5.79-5.79,5.79-5.79A3.75,3.75,0,0,0,30.25,71.82Z"/><path class="cls-1" d="M28.7,38.07,16.35,50.42,11.5,45.57a3.75,3.75,0,0,0-5.3,5.3l7.5,7.5a3.74,3.74,0,0,0,5.3,0l15-15a3.75,3.75,0,1,0-5.3-5.3Z"/><path class="cls-1" d="M89.47,46.35H48.22a5.63,5.63,0,0,0,0,11.25H89.47a5.63,5.63,0,1,0,0-11.25Z"/><path class="cls-1" d="M28.7,6.2,16.35,18.54,11.5,13.7A3.75,3.75,0,0,0,6.2,19l7.5,7.5a3.74,3.74,0,0,0,5.3,0l15-15a3.75,3.75,0,1,0-5.3-5.3Z"/><path class="cls-1" d="M48.22,25.72H89.47a5.63,5.63,0,1,0,0-11.25H48.22a5.63,5.63,0,0,0,0,11.25Z"/><path class="cls-1" d="M89.47,78.22H48.22a5.63,5.63,0,0,0,0,11.25H89.47a5.63,5.63,0,1,0,0-11.25Z"/></svg>